<svg
	xmlns="http://www.w3.org/2000/svg"
	width="28"
	height="28"
	viewBox="0 0 32 32"
	fill="none"
>
	<path
		d="M9.92793 7.59993C9.92761 8.23645 9.67445 8.84677 9.22414 9.29664C8.77383 9.7465 8.16325 9.99905 7.52673 9.99873C6.89021 9.99841 6.27989 9.74525 5.83003 9.29494C5.38016 8.84463 5.12761 8.23405 5.12793 7.59753C5.12825 6.96101 5.38141 6.35069 5.83172 5.90083C6.28203 5.45096 6.89261 5.19841 7.52913 5.19873C8.16565 5.19905 8.77597 5.45221 9.22584 5.90252C9.6757 6.35284 9.92825 6.96341 9.92793 7.59993ZM9.99993 11.7759H5.19993V26.7999H9.99993V11.7759ZM17.5839 11.7759H12.8079V26.7999H17.5359V18.9159C17.5359 14.5239 23.2599 14.1159 23.2599 18.9159V26.7999H27.9999V17.2839C27.9999 9.87993 19.5279 10.1559 17.5359 13.7919L17.5839 11.7759Z"
		fill="#6F6F6F"
	></path>
</svg>