<svg width="20" height="20" viewBox="0 0 20 20" fill="none" xmlns="http://www.w3.org/2000/svg">
<path d="M16.75 6.99993C17.1478 6.99993 17.5294 7.15796 17.8107 7.43927C18.092 7.72057 18.25 8.1021 18.25 8.49992V11.4999C18.25 11.8977 18.092 12.2793 17.8107 12.5606C17.5294 12.8419 17.1478 12.9999 16.75 12.9999H15.9535C15.7707 14.4499 15.0649 15.7833 13.9688 16.7499C12.8727 17.7165 11.4615 18.2499 10 18.2499V16.7499C11.1935 16.7499 12.3381 16.2758 13.182 15.4319C14.0259 14.588 14.5 13.4434 14.5 12.2499V7.74993C14.5 6.55645 14.0259 5.41186 13.182 4.56795C12.3381 3.72403 11.1935 3.24993 10 3.24993C8.80653 3.24993 7.66193 3.72403 6.81802 4.56795C5.97411 5.41186 5.5 6.55645 5.5 7.74993V12.9999H3.25C2.85218 12.9999 2.47064 12.8419 2.18934 12.5606C1.90804 12.2793 1.75 11.8977 1.75 11.4999V8.49992C1.75 8.1021 1.90804 7.72057 2.18934 7.43927C2.47064 7.15796 2.85218 6.99993 3.25 6.99993H4.0465C4.22952 5.5501 4.93531 4.21688 6.03143 3.25043C7.12755 2.28398 8.53866 1.75073 10 1.75073C11.4613 1.75073 12.8724 2.28398 13.9686 3.25043C15.0647 4.21688 15.7705 5.5501 15.9535 6.99993H16.75ZM6.82 12.8387L7.615 11.5667C8.32981 12.0145 9.15652 12.2513 10 12.2499C10.8435 12.2513 11.6702 12.0145 12.385 11.5667L13.18 12.8387C12.2269 13.4358 11.1247 13.7517 10 13.7499C8.87534 13.7517 7.77306 13.4358 6.82 12.8387Z" fill="#6F6F6F"/>
</svg>
