<svg width="20" height="20" viewBox="0 0 20 20" fill="none" xmlns="http://www.w3.org/2000/svg">
<path d="M4 2.5H16C16.1989 2.5 16.3897 2.57902 16.5303 2.71967C16.671 2.86032 16.75 3.05109 16.75 3.25V16.75C16.75 16.9489 16.671 17.1397 16.5303 17.2803C16.3897 17.421 16.1989 17.5 16 17.5H4C3.80109 17.5 3.61032 17.421 3.46967 17.2803C3.32902 17.1397 3.25 16.9489 3.25 16.75V3.25C3.25 3.05109 3.32902 2.86032 3.46967 2.71967C3.61032 2.57902 3.80109 2.5 4 2.5ZM4.75 4V16H15.25V4H4.75ZM6.25 5.5H13.75V8.5H6.25V5.5ZM6.25 10H7.75V11.5H6.25V10ZM6.25 13H7.75V14.5H6.25V13ZM9.25 10H10.75V11.5H9.25V10ZM9.25 13H10.75V14.5H9.25V13ZM12.25 10H13.75V14.5H12.25V10Z" fill="#6F6F6F"/>
</svg>
