<svg
    xmlns="http://www.w3.org/2000/svg"
    width="22"
    height="18"
    viewBox="0 0 24 20"
    fill="none"
>
    <path
        d="M21.1272 3.9939C21.036 3.6363 20.7768 3.3663 20.4804 3.2835C19.956 3.1359 17.4 2.7999 12 2.7999C6.6 2.7999 4.0464 3.1359 3.5172 3.2835C3.2244 3.3651 2.9652 3.6351 2.8728 3.9939C2.742 4.5027 2.4 6.6351 2.4 9.9999C2.4 13.3647 2.742 15.4959 2.8728 16.0071C2.964 16.3635 3.2232 16.6335 3.5184 16.7151C4.0464 16.8639 6.6 17.1999 12 17.1999C17.4 17.1999 19.9548 16.8639 20.4828 16.7163C20.7756 16.6347 21.0348 16.3647 21.1272 16.0059C21.258 15.4971 21.6 13.3599 21.6 9.9999C21.6 6.6399 21.258 4.5039 21.1272 3.9939ZM23.4516 3.3975C24 5.5359 24 9.9999 24 9.9999C24 9.9999 24 14.4639 23.4516 16.6023C23.1468 17.7843 22.2552 18.7143 21.126 19.0287C19.0752 19.5999 12 19.5999 12 19.5999C12 19.5999 4.9284 19.5999 2.874 19.0287C1.74 18.7095 0.8496 17.7807 0.5484 16.6023C3.57628e-08 14.4639 0 9.9999 0 9.9999C0 9.9999 3.57628e-08 5.5359 0.5484 3.3975C0.8532 2.2155 1.7448 1.2855 2.874 0.971102C4.9284 0.399902 12 0.399902 12 0.399902C12 0.399902 19.0752 0.399902 21.126 0.971102C22.26 1.2903 23.1504 2.2191 23.4516 3.3975ZM9.6 14.1999V5.7999L16.8 9.9999L9.6 14.1999Z"
        fill="#6F6F6F"
    ></path>
</svg>