<svg xmlns="http://www.w3.org/2000/svg" width="32" height="33" viewBox="0 0 32 33" fill="none"><path d="M16 2.5C8.27812 2.5 2 8.77812 2 16.5C2 24.2219 8.27812 30.5 16 30.5C23.7219 30.5 30 24.2219 30 16.5C30 8.77812 23.7219 2.5 16 2.5Z" fill="url(#paint0_radial_2026_9503)"></path><path d="M20.5204 16.4411C18.5984 16.4411 17.0406 18.0212 17.0406 19.9704C17.0406 21.9198 18.5984 23.5 20.5204 23.5C22.4421 23.5 24 21.9198 24 19.9704C24 18.0212 22.4421 16.4411 20.5204 16.4411ZM11.4797 16.4414C9.55797 16.4414 8 18.0212 8 19.9706C8 21.9198 9.55797 23.5 11.4797 23.5C13.4016 23.5 14.9596 21.9198 14.9596 19.9706C14.9596 18.0212 13.4016 16.4414 11.4797 16.4414ZM19.4796 12.0293C19.4796 13.9785 17.9218 15.559 16.0001 15.559C14.0782 15.559 12.5203 13.9785 12.5203 12.0293C12.5203 10.0802 14.0782 8.5 16.0001 8.5C17.9218 8.5 19.4796 10.0802 19.4796 12.0293Z" fill="white"></path><defs><radialGradient id="paint0_radial_2026_9503" cx="0" cy="0" r="1" gradientUnits="userSpaceOnUse" gradientTransform="translate(16 17.8026) scale(18.5537)"><stop stop-color="#FFB900"></stop><stop offset="0.6" stop-color="#F95D8F"></stop><stop offset="0.9991" stop-color="#F95353"></stop></radialGradient></defs></svg>