<svg xmlns="http://www.w3.org/2000/svg" width="32" height="33" viewBox="0 0 32 33" fill="none"><path d="M2 12.1C2 8.73969 2 7.05953 2.65396 5.77606C3.2292 4.64708 4.14708 3.7292 5.27606 3.15396C6.55953 2.5 8.23969 2.5 11.6 2.5H20.4C23.7603 2.5 25.4405 2.5 26.7239 3.15396C27.8529 3.7292 28.7708 4.64708 29.346 5.77606C30 7.05953 30 8.73969 30 12.1V20.9C30 24.2603 30 25.9405 29.346 27.2239C28.7708 28.3529 27.8529 29.2708 26.7239 29.846C25.4405 30.5 23.7603 30.5 20.4 30.5H11.6C8.23969 30.5 6.55953 30.5 5.27606 29.846C4.14708 29.2708 3.2292 28.3529 2.65396 27.2239C2 25.9405 2 24.2603 2 20.9V12.1Z" fill="#4087FC"></path><path d="M8.26667 10.5C7.56711 10.5 7 11.1396 7 11.9286V18.8571C7 20.869 8.44612 22.5 10.23 22.5L17.7333 22.4286C18.4329 22.4286 19 21.789 19 21V14C19 11.9881 17.2839 10.5 15.5 10.5L8.26667 10.5Z" fill="white"></path><path d="M20.7122 13.2276C20.2596 13.6752 20 14.3211 20 15V17.8993C20 18.5782 20.2596 19.2242 20.7122 19.6717L23.5288 22.1525C24.1019 22.7191 25 22.2601 25 21.4005V11.6352C25 10.7755 24.1019 10.3165 23.5288 10.8832L20.7122 13.2276Z" fill="white"></path></svg>