<svg width="138" height="83" viewBox="0 0 138 83" fill="none" xmlns="http://www.w3.org/2000/svg">
<path d="M63.5435 0.0397253C60.9347 0.556337 59.1653 2.64862 59.1523 5.24459C59.1523 7.56935 60.4051 9.45498 62.5103 10.2945C63.0915 10.527 63.479 10.5786 64.6672 10.5786C66.0233 10.5786 66.1654 10.5528 66.9919 10.1782C67.896 9.75203 68.968 8.83505 69.3167 8.17637C70.2208 6.44572 70.2208 4.19845 69.3167 2.4678C68.8905 1.66705 67.741 0.737152 66.5916 0.285116C66.0749 0.0784712 64.1377 -0.0765123 63.5435 0.0397253Z" fill="black"/>
<path d="M17.616 15.0732C14.6972 15.2799 12.0883 16.7005 10.461 18.9736C10.0477 19.5677 9.99602 19.5936 9.42774 19.5936C9.07903 19.5936 8.75615 19.5161 8.67866 19.4257C8.58825 19.3223 8.51076 18.5087 8.49784 17.4496L8.4591 15.6544H4.51993H0.580761L0.542015 33.5421C0.516185 50.2416 0.5291 51.4427 0.735745 51.5848C0.890729 51.7139 1.89812 51.7527 4.64908 51.7527C7.40004 51.7527 8.39452 51.7139 8.56242 51.5848C8.75615 51.4427 8.78198 50.4224 8.82073 39.5477C8.85947 27.756 8.85947 27.6656 9.14361 26.852C9.6473 25.3925 10.1123 24.5918 10.9776 23.7136C12.0496 22.6287 13.044 22.1379 14.8263 21.8279C16.0662 21.6213 16.2212 21.6213 17.3577 21.815C19.9537 22.267 21.3873 23.4036 22.2268 25.6638L22.5368 26.5033L22.5755 38.9665C22.6014 50.4224 22.6272 51.4427 22.8209 51.5848C23.1051 51.8043 30.1051 51.8302 30.4926 51.6235C30.738 51.4944 30.738 51.2231 30.738 40.5422C30.738 29.6029 30.8026 27.911 31.19 26.7357C32.1199 23.946 33.9797 22.3187 36.8211 21.8279C38.0351 21.6213 38.1643 21.6213 39.4042 21.8279C40.7732 22.0733 41.3931 22.3187 42.3747 23.029C43.1496 23.5973 43.6016 24.2043 44.0924 25.328L44.4928 26.2449L44.5315 38.8374C44.5574 50.4095 44.5832 51.4427 44.7769 51.5848C45.0611 51.8043 52.1903 51.8302 52.5778 51.6235C52.8232 51.4944 52.8232 51.2231 52.8232 39.4573C52.8232 31.4627 52.7715 26.9424 52.6811 25.9866C52.539 24.6951 52.2032 23.0161 51.932 22.3704C50.3693 18.6507 47.7991 16.3777 43.9762 15.3703C42.9688 15.099 42.5168 15.0603 40.5536 15.0603C38.4355 15.0603 37.9835 15.099 36.5757 15.4607C34.4963 15.9773 32.5461 17.4884 31.0738 19.7227C30.1568 21.1047 29.5369 21.1305 28.6586 19.8131C27.7675 18.5087 27.2509 17.9275 26.2951 17.1784C25.2232 16.3389 24.5128 15.9644 23.1825 15.5252C21.8264 15.0861 19.7858 14.9182 17.616 15.0732Z" fill="black"/>
<path d="M94.2173 15.4737C91.6988 15.5383 91.1176 15.5899 90.3815 15.8224C88.3796 16.4553 87.2818 17.2819 86.4035 18.8446C85.8869 19.7358 85.4607 19.9811 84.8279 19.7358L84.4662 19.5937V17.7597C84.4662 16.7394 84.4146 15.8353 84.3629 15.7449C84.2725 15.6287 83.3943 15.5899 80.385 15.6158L76.5233 15.6545L76.4846 33.5939C76.4588 47.8653 76.4846 51.5591 76.6137 51.6495C76.8204 51.7786 84.2209 51.7786 84.4275 51.6495C84.5437 51.5849 84.5954 48.7306 84.6212 40.129L84.6729 28.699L84.9829 27.7949C85.7836 25.4185 87.3851 23.8816 89.8907 23.0808C91.208 22.6675 96.6841 22.5642 118.627 22.5642H138V19.0125V15.4608L117.594 15.422C106.371 15.4091 95.8575 15.435 94.2173 15.4737Z" fill="black"/>
<path d="M60.65 15.706C60.6112 15.7706 60.5725 23.8556 60.5596 33.6841C60.5596 48.2138 60.5854 51.5589 60.7275 51.6364C60.947 51.7785 68.3346 51.7785 68.5541 51.6493C68.6833 51.5589 68.7091 47.8651 68.6833 33.5937L68.6446 15.6544L64.6796 15.6156C62.3677 15.6027 60.6887 15.6415 60.65 15.706Z" fill="black"/>
<path d="M123.07 26.2707C123.057 26.3353 123.07 27.136 123.083 28.0659C123.109 29.7061 123.096 29.7707 122.812 29.9774C122.54 30.1582 121.817 30.184 116.225 30.184C110.413 30.184 109.819 30.2098 108.592 30.4423C106.28 30.9073 104.369 31.6434 102.87 32.6508C102.044 33.2062 100.662 34.614 100.145 35.4276C99.6673 36.1767 99.0603 37.4424 99.0603 37.7007C99.0603 37.7911 98.9699 38.1011 98.8666 38.3852C98.7374 38.7598 98.6858 39.5347 98.6729 41.1491C98.6729 43.0606 98.7116 43.5514 98.9441 44.3779C99.5382 46.509 100.933 48.5496 102.702 49.8799C103.594 50.5385 105.686 51.5847 106.809 51.9205C108.824 52.5275 109.38 52.5921 112.234 52.5792C115.049 52.5662 115.941 52.4371 117.335 51.8817C119.712 50.926 120.836 49.9832 122.153 47.878C122.915 46.6769 122.928 46.651 123.47 46.6123C124.129 46.5606 124.374 46.7414 124.374 47.2968C124.374 47.9813 124.891 49.1437 125.485 49.8024C126.195 50.5902 127.5 51.2747 128.766 51.5072C129.424 51.6363 130.729 51.688 132.898 51.688H136.063V48.33V44.972L134.1 44.9075C131.891 44.83 131.633 44.7396 131.155 43.7967C130.909 43.306 130.897 42.9702 130.832 34.7689L130.767 26.2448L126.932 26.2061C124.813 26.1932 123.07 26.219 123.07 26.2707ZM122.954 36.4479C123.134 36.6675 123.083 37.8299 122.837 39.2247C122.437 41.4591 120.784 43.6159 118.511 44.8945C116.651 45.9407 113.435 46.354 111.214 45.8244C109.134 45.3208 107.765 44.3521 107.055 42.8668C106.642 42.0273 106.616 39.8963 107.003 39.1343C107.688 37.817 108.708 37.0162 110.387 36.5254C111.201 36.293 111.679 36.28 117.025 36.2671C121.985 36.2542 122.812 36.28 122.954 36.4479Z" fill="black"/>
<path d="M0.0904071 60.109C0.0387459 60.1477 0 64.0998 0 68.8785C0 76.6664 0.0258306 77.5575 0.206645 77.635C0.568273 77.7771 1.75648 77.7125 1.91146 77.5575C2.0277 77.4413 2.06645 75.349 2.06645 68.9172C2.06645 64.2419 2.0277 60.3414 1.98896 60.2252C1.92438 60.0702 1.71774 60.0186 1.04614 60.0186C0.568273 60.0186 0.129153 60.0573 0.0904071 60.109Z" fill="black"/>
<path d="M46.4566 60.1088C46.405 60.1476 46.3662 64.0996 46.3662 68.8783V77.5832L46.6633 77.6478C46.8312 77.6995 47.2186 77.7124 47.5415 77.6865L48.1098 77.6478L48.1485 68.8266L48.1744 60.0184H47.3607C46.9087 60.0184 46.4954 60.0572 46.4566 60.1088Z" fill="black"/>
<path d="M52.7852 60.1089C52.7336 60.1476 52.6948 64.0997 52.6948 68.8784C52.6948 78.6165 52.5915 77.7124 53.7281 77.7124C54.0639 77.7124 54.3996 77.635 54.4771 77.5445C54.6063 77.3767 54.6838 61.0388 54.5546 60.3672C54.4901 60.0314 54.4513 60.0185 53.6764 60.0185C53.2244 60.0185 52.824 60.0572 52.7852 60.1089Z" fill="black"/>
<path d="M58.8161 60.8451C58.4415 61.2196 58.377 61.3746 58.377 61.8912C58.377 62.382 58.4415 62.5628 58.7515 62.8728C59.0615 63.1827 59.2423 63.2473 59.7331 63.2473C60.4692 63.2473 60.7663 63.0923 61.0246 62.6015C61.3604 61.9558 61.2829 61.3488 60.7792 60.8451C60.4176 60.4834 60.2368 60.4059 59.7976 60.4059C59.3585 60.4059 59.1777 60.4834 58.8161 60.8451Z" fill="black"/>
<path d="M23.7257 61.0001C23.6741 61.0518 23.6353 61.9688 23.6353 63.0408C23.6353 64.1127 23.5836 65.0555 23.532 65.146C23.4674 65.2622 22.8862 65.3139 21.698 65.3397L19.9544 65.3784L19.9157 66.1792L19.877 66.9928H21.6722C23.1962 66.9928 23.4932 67.0187 23.5578 67.1995C23.5966 67.3157 23.6353 69.3822 23.6353 71.8102C23.6353 75.8527 23.6611 76.266 23.8678 76.6793C24.2552 77.4026 24.8235 77.5963 26.6575 77.6738C27.5357 77.7125 28.414 77.7125 28.5948 77.6609C28.9306 77.5834 28.9435 77.5446 28.9047 76.8343L28.866 76.0981L27.3678 76.0336C26.3604 75.9948 25.7922 75.9044 25.6501 75.7882C25.4564 75.6332 25.4434 75.1941 25.4693 71.3324L25.508 67.0574L27.4841 67.0187L29.4601 66.9799L29.4214 66.1792L29.3826 65.3784L27.4195 65.3397L25.4434 65.3009L25.4176 63.1441L25.3789 60.9872L24.604 60.9485C24.1648 60.9226 23.7774 60.9485 23.7257 61.0001Z" fill="black"/>
<path d="M35.6588 65.2492C33.5923 65.8304 31.9908 67.561 31.5259 69.6791C31.3192 70.6478 31.345 72.6109 31.5775 73.515C32.3524 76.4855 34.858 78.1645 38.1514 77.932C39.4042 77.8416 40.1275 77.5962 41.0444 76.9763C41.716 76.5243 42.8784 75.1423 42.8784 74.7936C42.8784 74.6386 41.7548 73.967 41.4836 73.967C41.419 73.967 41.1865 74.2512 40.9669 74.5999C40.192 75.7881 39.1976 76.2918 37.6477 76.2918C35.3617 76.2918 33.7344 75.0132 33.2953 72.8821C33.179 72.2622 33.179 72.1201 33.334 72.0168C33.4373 71.9522 35.7233 71.9006 38.4097 71.9006H43.3046L43.2271 70.6349C43.1496 69.1625 42.8268 68.2068 42.1164 67.2511C41.4965 66.4374 40.6828 65.8046 39.7787 65.43C38.8488 65.0555 36.692 64.9651 35.6588 65.2492ZM39.3655 67.1348C39.8046 67.3544 40.3341 67.7418 40.5537 68.0002C41.0057 68.5426 41.3673 69.5371 41.3027 70.0537L41.264 70.4153H37.3248H33.3857L33.3469 70.1183C33.2436 69.4079 34.0314 68.026 34.8709 67.4448C35.6329 66.9153 36.2529 66.7474 37.4669 66.7345C38.4485 66.7345 38.668 66.7732 39.3655 67.1348Z" fill="black"/>
<path d="M68.5291 65.3138C66.7726 65.9466 65.5715 67.1607 64.9516 68.9559C64.5383 70.1441 64.5383 72.6368 64.9516 73.8379C65.5844 75.6589 66.9405 76.9892 68.697 77.5058C69.7044 77.8029 71.3317 77.7771 72.4037 77.4413C73.1528 77.2088 73.3982 77.0538 74.1085 76.3435C74.5606 75.8914 75.0126 75.5169 75.1159 75.5169C75.3871 75.5169 75.3871 80.386 75.1159 80.7605C74.9351 80.993 74.7026 81.0059 70.8151 81.0705L66.7081 81.135L66.6693 81.8712C66.6306 82.5686 66.6564 82.6203 66.9534 82.6978C67.1213 82.7365 69.1878 82.7495 71.5255 82.7236C75.6067 82.6849 75.8133 82.672 76.1491 82.4137C76.3429 82.2716 76.627 81.9874 76.7691 81.7937C77.0403 81.445 77.0403 81.3159 77.0403 73.4117V65.3784H76.2654H75.4905L75.4517 66.0887C75.413 67.0057 75.3226 67.3802 75.1547 67.3802C75.0772 67.3802 74.6639 67.0186 74.2248 66.5666C73.0753 65.4042 72.4683 65.1588 70.7118 65.0942C69.5236 65.0555 69.1749 65.0942 68.5291 65.3138ZM73.0882 67.1865C74.5606 68.0002 75.2967 69.395 75.2967 71.384C75.2967 73.9929 74.0181 75.6202 71.6417 76.0335C69.6915 76.3822 67.78 75.4394 66.9405 73.7346C66.6047 73.0501 66.5789 72.8822 66.5789 71.384C66.5789 69.8729 66.6047 69.7179 66.9405 69.0334C67.3796 68.1422 68.2321 67.3544 69.149 66.9928C69.6915 66.7861 70.0402 66.7345 71.0993 66.7732C72.2487 66.7991 72.4683 66.8507 73.0882 67.1865Z" fill="black"/>
<path d="M85.0735 65.1846C82.568 65.8174 80.9148 67.8968 80.6565 70.7381C80.269 74.9744 82.8521 77.9707 86.8688 77.9707C88.4961 77.9707 89.8135 77.4928 90.8596 76.5371C91.4795 75.9688 92.2803 74.8194 92.164 74.6386C92.1382 74.5869 91.8024 74.3932 91.4279 74.2253L90.7563 73.9024L90.4851 74.2769C89.3872 75.8138 88.7415 76.1884 87.1142 76.2659C86.1455 76.3046 85.8226 76.2659 85.1898 76.0334C84.1436 75.633 83.175 74.6773 82.8004 73.6699C82.4776 72.7658 82.4388 72.0942 82.7359 71.978C82.8521 71.9393 85.1252 71.9005 87.7858 71.9005H92.6419L92.5644 70.8285C92.3707 68.1551 91.1179 66.2436 89.0256 65.4299C88.1861 65.1071 85.9518 64.965 85.0735 65.1846ZM88.2894 66.9539C89.2194 67.2639 90.2009 68.2971 90.4721 69.24C90.8467 70.5057 91.1566 70.4153 86.5975 70.4153C82.0384 70.4153 82.3355 70.5057 82.8004 69.24C83.1492 68.3101 84.1307 67.2897 84.9831 66.9669C85.771 66.6827 87.45 66.6698 88.2894 66.9539Z" fill="black"/>
<path d="M114.908 65.1975C112.932 65.6624 111.214 67.3027 110.633 69.3046C110.4 70.1182 110.362 72.5334 110.568 73.4374C110.775 74.3544 111.304 75.336 112.002 76.098C113.694 77.9578 116.961 78.5261 119.428 77.3895C120.707 76.8083 122.127 75.0648 122.386 73.7603C122.463 73.3858 122.45 73.3729 121.792 73.2179C120.862 72.9983 120.629 73.0242 120.629 73.2954C120.629 73.7474 119.958 74.871 119.376 75.3877C118.589 76.0722 117.685 76.3434 116.38 76.2659C113.797 76.1109 112.234 74.3157 112.234 71.5002C112.234 69.9503 112.596 68.9429 113.5 68.0259C114.443 67.0831 115.295 66.7344 116.729 66.7344C118.602 66.7473 120.061 67.7935 120.513 69.4724C120.655 70.0149 120.707 70.0278 121.65 69.8082C122.244 69.6791 122.308 69.6274 122.308 69.3175C122.308 69.1237 122.102 68.5555 121.856 68.0647C121.12 66.5794 119.777 65.5333 118.201 65.1975C117.4 65.0296 115.618 65.0296 114.908 65.1975Z" fill="black"/>
<path d="M129.928 65.2622C128.456 65.6497 127.061 66.8121 126.376 68.194C125.614 69.7568 125.472 72.1719 126.04 73.993C126.751 76.2402 128.765 77.7513 131.284 77.9321C133.79 78.113 135.611 77.2993 136.825 75.4653C137.083 75.0779 137.29 74.7292 137.29 74.7033C137.29 74.6258 135.895 73.9672 135.74 73.9672C135.688 73.9672 135.585 74.1092 135.507 74.2771C135.275 74.7937 134.448 75.6461 133.88 75.9432C133.428 76.1886 133.144 76.2273 131.93 76.2273C130.638 76.2273 130.444 76.2015 129.863 75.8786C129.011 75.4266 128.339 74.7162 127.939 73.838C127.551 73.0114 127.487 72.0944 127.81 71.9782C127.926 71.9394 130.16 71.9007 132.782 71.9007C136.967 71.9007 137.561 71.8749 137.638 71.707C137.755 71.3712 137.432 69.2531 137.148 68.4911C136.566 66.98 135.081 65.6626 133.48 65.2493C132.524 65.0039 130.871 65.0168 129.928 65.2622ZM133.312 66.9412C134.526 67.3545 135.559 68.646 135.636 69.8601L135.675 70.4154H131.671H127.668L127.694 69.9376C127.758 68.8269 128.946 67.3545 130.096 66.9412C130.832 66.6829 132.575 66.6829 133.312 66.9412Z" fill="black"/>
<path d="M10.7844 65.4043C10.2032 65.6109 9.20876 66.4504 8.55008 67.2899C8.26594 67.6516 8.13679 67.4191 8.13679 66.5408C8.13679 65.3656 8.09804 65.3139 7.29729 65.3139C6.09617 65.3139 6.19949 64.694 6.19949 71.5262V77.5834L6.49654 77.648C6.66444 77.6997 7.09065 77.7126 7.43936 77.6868L8.07221 77.648L8.1497 73.7734C8.22719 69.3693 8.26594 69.1239 9.2475 68.039C10.0353 67.1737 10.8748 66.8121 12.2051 66.8121C13.4708 66.7992 14.4782 67.1995 15.0465 67.9486C15.6664 68.7494 15.7568 69.5114 15.7568 73.7347V77.5834L16.0668 77.6609C16.2347 77.6997 16.6351 77.7126 16.9321 77.6868L17.5004 77.6351V73.1922C17.5004 68.8527 17.4875 68.7106 17.2033 68.0132C16.79 66.98 16.041 66.1792 15.0077 65.6755C14.2199 65.2881 14.0391 65.2493 12.7863 65.2235C11.7918 65.1977 11.2623 65.2493 10.7844 65.4043Z" fill="black"/>
<path d="M100.158 65.4428C99.3571 65.7528 98.6338 66.3469 98.2076 67.0185C98.0268 67.3026 97.8201 67.5093 97.7297 67.4705C97.6393 67.4447 97.5489 67.0314 97.5102 66.3986L97.4456 65.3783H96.6061H95.7666V71.513V77.6478H96.6061H97.4456L97.5102 73.7732L97.5747 69.8986L97.9364 69.1237C98.5176 67.8838 99.2537 67.251 100.519 66.9152C102.521 66.3857 104.433 67.251 104.924 68.9171C105.091 69.4982 105.13 70.3248 105.13 73.6053V77.5832L105.427 77.6478C105.595 77.6995 105.983 77.7124 106.305 77.6865L106.874 77.6478V73.1274V68.6071L106.525 67.8709C106.047 66.8506 105.285 66.0628 104.317 65.6237C103.619 65.3008 103.335 65.2491 102.16 65.2233C101.062 65.1974 100.674 65.2362 100.158 65.4428Z" fill="black"/>
<path d="M58.984 65.3912C58.9323 65.4428 58.8936 68.2067 58.8936 71.5259V77.5832L59.1906 77.6478C59.3585 77.6995 59.746 77.7124 60.0688 77.6865L60.6371 77.6478V71.513V65.3783L59.8622 65.3395C59.4231 65.3137 59.0356 65.3395 58.984 65.3912Z" fill="black"/>
</svg>
