<svg width="138" height="53" viewBox="0 0 138 53" fill="none" xmlns="http://www.w3.org/2000/svg">
<path d="M63.2548 0.0400295C60.6358 0.558643 58.8595 2.65903 58.8466 5.26506C58.8466 7.59883 60.1042 9.49177 62.2175 10.3345C62.801 10.5679 63.1899 10.6198 64.3828 10.6198C65.7441 10.6198 65.8867 10.5938 66.7165 10.2178C67.6241 9.78997 68.7002 8.86943 69.0503 8.2082C69.9579 6.47084 69.9579 4.21487 69.0503 2.47751C68.6224 1.67366 67.4685 0.740158 66.3146 0.286371C65.796 0.0789261 63.8512 -0.0766582 63.2548 0.0400295Z" fill="#BF9EF9"/>
<path d="M17.15 15.1317C14.2198 15.3391 11.6008 16.7653 9.96721 19.0472C9.55232 19.6436 9.50046 19.6695 8.92999 19.6695C8.57992 19.6695 8.25579 19.5918 8.17799 19.501C8.08724 19.3973 8.00945 18.5805 7.99648 17.5173L7.95758 15.7151H4.00315H0.0487228L0.00982675 33.6721C-0.0161039 50.4363 -0.0031386 51.6421 0.204307 51.7847C0.359891 51.9144 1.37119 51.9533 4.13281 51.9533C6.89443 51.9533 7.89276 51.9144 8.06131 51.7847C8.25579 51.6421 8.28172 50.6178 8.32061 39.701C8.35951 27.8636 8.35951 27.7729 8.64475 26.9561C9.1504 25.491 9.61715 24.6871 10.4858 23.8055C11.5619 22.7164 12.5603 22.2237 14.3495 21.9125C15.5942 21.7051 15.7498 21.7051 16.8907 21.8996C19.4967 22.3534 20.9359 23.4943 21.7786 25.7633L22.0898 26.606L22.1287 39.1176C22.1546 50.6178 22.1806 51.6421 22.375 51.7847C22.6603 52.0051 29.6875 52.031 30.0765 51.8236C30.3228 51.6939 30.3228 51.4217 30.3228 40.6993C30.3228 29.7177 30.3876 28.0192 30.7766 26.8394C31.7101 24.0389 33.5771 22.4052 36.4295 21.9125C37.6482 21.7051 37.7779 21.7051 39.0226 21.9125C40.3969 22.1589 41.0192 22.4052 42.0046 23.1183C42.7825 23.6888 43.2363 24.2982 43.729 25.4262L44.1309 26.3467L44.1698 38.9879C44.1957 50.6049 44.2217 51.6421 44.4161 51.7847C44.7014 52.0051 51.8582 52.031 52.2472 51.8236C52.4935 51.6939 52.4935 51.4217 52.4935 39.6102C52.4935 31.5847 52.4417 27.0468 52.3509 26.0874C52.2083 24.7909 51.8712 23.1054 51.5989 22.4571C50.0301 18.7231 47.45 16.4412 43.6123 15.4299C42.601 15.1576 42.1472 15.1187 40.1765 15.1187C38.0501 15.1187 37.5964 15.1576 36.1831 15.5206C34.0957 16.0392 32.138 17.5562 30.6599 19.7992C29.7394 21.1865 29.117 21.2124 28.2354 19.89C27.3408 18.5805 26.8222 17.997 25.8627 17.245C24.7866 16.4023 24.0735 16.0263 22.7381 15.5855C21.3767 15.1446 19.3282 14.9761 17.15 15.1317Z" fill="#BF9EF9"/>
<path d="M94.0475 15.5336C91.5192 15.5984 90.9358 15.6503 90.1967 15.8837C88.1871 16.519 87.0851 17.3488 86.2034 18.9176C85.6848 19.8122 85.257 20.0585 84.6216 19.8122L84.2586 19.6696V17.8285C84.2586 16.8042 84.2068 15.8966 84.1549 15.8059C84.0641 15.6892 83.1825 15.6503 80.1616 15.6762L76.2849 15.7151L76.246 33.724C76.2201 48.0507 76.246 51.7588 76.3757 51.8495C76.5831 51.9792 84.0123 51.9792 84.2197 51.8495C84.3364 51.7847 84.3883 48.9194 84.4142 40.2844L84.4661 28.8101L84.7772 27.9025C85.5811 25.5169 87.1888 23.974 89.7041 23.1702C91.0265 22.7553 96.5238 22.6516 118.552 22.6516H138V19.0861V15.5206L117.515 15.4817C106.248 15.4688 95.6941 15.4947 94.0475 15.5336Z" fill="#BF9EF9"/>
<path d="M60.3505 15.767C60.3116 15.8318 60.2727 23.9481 60.2598 33.8147C60.2598 48.4007 60.2857 51.7588 60.4283 51.8365C60.6487 51.9792 68.0649 51.9792 68.2853 51.8495C68.415 51.7588 68.4409 48.0507 68.415 33.724L68.3761 15.7151L64.3957 15.6762C62.0749 15.6632 60.3894 15.7021 60.3505 15.767Z" fill="#BF9EF9"/>
<path d="M123.012 26.3726C122.999 26.4374 123.012 27.2413 123.025 28.1748C123.051 29.8214 123.038 29.8862 122.753 30.0937C122.48 30.2752 121.754 30.3011 116.14 30.3011C110.306 30.3011 109.71 30.327 108.478 30.5604C106.157 31.0272 104.238 31.7662 102.734 32.7775C101.904 33.335 100.517 34.7482 99.9986 35.565C99.5188 36.317 98.9095 37.5876 98.9095 37.8469C98.9095 37.9377 98.8187 38.2489 98.715 38.5341C98.5853 38.9101 98.5335 39.688 98.5205 41.3087C98.5205 43.2275 98.5594 43.7202 98.7928 44.55C99.3892 46.6893 100.789 48.7378 102.566 50.0732C103.46 50.7345 105.561 51.7847 106.689 52.1218C108.711 52.7311 109.269 52.796 112.134 52.783C114.961 52.77 115.855 52.6404 117.255 52.0829C119.641 51.1234 120.769 50.177 122.092 48.0636C122.856 46.8578 122.869 46.8319 123.414 46.793C124.075 46.7412 124.322 46.9227 124.322 47.4802C124.322 48.1673 124.84 49.3342 125.437 49.9955C126.15 50.7863 127.459 51.4735 128.73 51.7069C129.391 51.8365 130.7 51.8884 132.879 51.8884H136.055V48.5174V45.1464L134.084 45.0816C131.867 45.0038 131.608 44.913 131.128 43.9666C130.882 43.4739 130.869 43.1368 130.804 34.9038L130.739 26.3467L126.889 26.3078C124.762 26.2948 123.012 26.3207 123.012 26.3726ZM122.895 36.5893C123.077 36.8097 123.025 37.9766 122.779 39.3768C122.377 41.6198 120.717 43.7851 118.435 45.0686C116.568 46.1188 113.34 46.5337 111.11 46.0021C109.022 45.4965 107.648 44.5241 106.935 43.0331C106.52 42.1903 106.494 40.051 106.883 39.2861C107.57 37.9636 108.595 37.1598 110.28 36.6671C111.097 36.4337 111.577 36.4207 116.944 36.4078C121.923 36.3948 122.753 36.4207 122.895 36.5893Z" fill="#BF9EF9"/>
</svg>
