<svg width="32" height="32" viewBox="0 0 32 32" fill="none" xmlns="http://www.w3.org/2000/svg">
<path d="M9.7001 4.59998C10.3698 4.59998 11.033 4.73189 11.6518 4.98819C12.2705 5.24449 12.8328 5.62015 13.3063 6.09373C13.7799 6.56731 14.1556 7.12953 14.4119 7.74829C14.6682 8.36705 14.8001 9.03023 14.8001 9.69998V14.8H9.7001C8.3475 14.8 7.05029 14.2627 6.09386 13.3062C5.13742 12.3498 4.6001 11.0526 4.6001 9.69998C4.6001 8.34737 5.13742 7.05017 6.09386 6.09373C7.05029 5.1373 8.3475 4.59998 9.7001 4.59998ZM9.7001 17.2H14.8001V22.3C14.8001 23.3087 14.501 24.2947 13.9406 25.1334C13.3802 25.9721 12.5837 26.6258 11.6518 27.0118C10.7199 27.3978 9.69444 27.4988 8.70514 27.302C7.71584 27.1052 6.8071 26.6195 6.09386 25.9062C5.38061 25.193 4.89488 24.2842 4.6981 23.2949C4.50131 22.3056 4.60231 21.2802 4.98831 20.3483C5.37432 19.4164 6.028 18.6199 6.86669 18.0595C7.70538 17.4991 8.69142 17.2 9.7001 17.2ZM22.3001 4.59998C23.6527 4.59998 24.9499 5.1373 25.9063 6.09373C26.8628 7.05017 27.4001 8.34737 27.4001 9.69998C27.4001 11.0526 26.8628 12.3498 25.9063 13.3062C24.9499 14.2627 23.6527 14.8 22.3001 14.8H17.2001V9.69998C17.2001 8.34737 17.7374 7.05017 18.6939 6.09373C19.6503 5.1373 20.9475 4.59998 22.3001 4.59998ZM17.2001 17.2H22.3001C23.3088 17.2 24.2948 17.4991 25.1335 18.0595C25.9722 18.6199 26.6259 19.4164 27.0119 20.3483C27.3979 21.2802 27.4989 22.3056 27.3021 23.2949C27.1053 24.2842 26.6196 25.193 25.9063 25.9062C25.1931 26.6195 24.2844 27.1052 23.2951 27.302C22.3058 27.4988 21.2803 27.3978 20.3484 27.0118C19.4165 26.6258 18.62 25.9721 18.0596 25.1334C17.4992 24.2947 17.2001 23.3087 17.2001 22.3V17.2Z" fill="#6F6F6F"/>
</svg>
